HIERARCHY
ROOT hip
{
  OFFSET 0 0 0
  CHANNELS 6 Xposition Yposition Zposition Zrotation Yrotation Xrotation
  JOINT abdomen
  {
    OFFSET 0 20.6881 -0.73152
    CHANNELS 3 Zrotation Xrotation Yrotation
    JOINT chest
    {
      OFFSET 0 11.7043 -0.48768
      CHANNELS 3 Zrotation Xrotation Yrotation
      JOINT neck
      {
        OFFSET 0 22.1894 -2.19456
        CHANNELS 3 Zrotation Xrotation Yrotation
        JOINT head
        {
          OFFSET -0.24384 7.07133 1.2192
          CHANNELS 3 Zrotation Xrotation Yrotation
          JOINT leftEye
          {
            OFFSET 4.14528 8.04674 8.04672
            CHANNELS 3 Zrotation Xrotation Yrotation
            End Site
            {
              OFFSET 1 0 0
            }
          }
          JOINT rightEye
          {
            OFFSET -3.6576 8.04674 8.04672
            CHANNELS 3 Zrotation Xrotation Yrotation
            End Site
            {
              OFFSET 1 0 0
            }
          }
        }
      }
      JOINT rCollar
      {
        OFFSET -2.68224 19.2634 -4.8768
        CHANNELS 3 Zrotation Xrotation Yrotation
        JOINT rShldr
        {
          OFFSET -8.77824 -1.95073 1.46304
          CHANNELS 3 Zrotation Xrotation Yrotation
          JOINT rForeArm
          {
            OFFSET -28.1742 -1.7115 0.48768
            CHANNELS 3 Zrotation Xrotation Yrotation
            JOINT rHand
            {
              OFFSET -22.5879 0.773209 7.07136
              CHANNELS 3 Zrotation Xrotation Yrotation
              JOINT rThumb1
              {
                OFFSET -1.2192 -0.487915 3.41376
                CHANNELS 3 Zrotation Xrotation Yrotation
                JOINT rThumb2
                {
                  OFFSET -3.37035 -0.52449 3.41376
                  CHANNELS 3 Zrotation Xrotation Yrotation
                  End Site
                  {
                    OFFSET -1.78271 -1.18214 1.43049
                  }
                }
              }
              JOINT rIndex1
              {
                OFFSET -7.75947 0.938293 5.60832
                CHANNELS 3 Zrotation Xrotation Yrotation
                JOINT rIndex2
                {
                  OFFSET -2.54057 -0.884171 1.56538
                  CHANNELS 3 Zrotation Xrotation Yrotation
                  End Site
                  {
                    OFFSET -1.62519 -0.234802 1.16502
                  }
                }
              }
              JOINT rMid1
              {
                OFFSET -8.24714 1.18213 3.41376
                CHANNELS 3 Zrotation Xrotation Yrotation
                JOINT rMid2
                {
                  OFFSET -3.10165 -0.590103 1.0647
                  CHANNELS 3 Zrotation Xrotation Yrotation
                  End Site
                  {
                    OFFSET -2.48547 -0.328903 0.83742
                  }
                }
              }
              JOINT rRing1
              {
                OFFSET -8.82822 0.546677 1.51678
                CHANNELS 3 Zrotation Xrotation Yrotation
                JOINT rRing2
                {
                  OFFSET -2.60934 -0.819778 -0.0198488
                  CHANNELS 3 Zrotation Xrotation Yrotation
                  End Site
                  {
                    OFFSET -2.33842 -0.294052 0.168128
                  }
                }
              }
              JOINT rPinky1
              {
                OFFSET -8.27202 -0.0477905 -0.4584
                CHANNELS 3 Zrotation Xrotation Yrotation
                JOINT rPinky2
                {
                  OFFSET -1.82734 -0.647385 -0.700984
                  CHANNELS 3 Zrotation Xrotation Yrotation
                  End Site
                  {
                    OFFSET -1.69225 -0.51767 -0.607171
                  }
                }
              }
            }
          }
        }
      }
      JOINT lCollar
      {
        OFFSET 2.68224 19.2634 -4.8768
        CHANNELS 3 Zrotation Xrotation Yrotation
        JOINT lShldr
        {
          OFFSET 8.77824 -1.95073 1.46304
          CHANNELS 3 Zrotation Xrotation Yrotation
          JOINT lForeArm
          {
            OFFSET 28.1742 -1.7115 0.48768
            CHANNELS 3 Zrotation Xrotation Yrotation
            JOINT lHand
            {
              OFFSET 22.5879 0.773209 7.07136
              CHANNELS 3 Zrotation Xrotation Yrotation
              JOINT lThumb1
              {
                OFFSET 1.2192 -0.487915 3.41376
                CHANNELS 3 Zrotation Xrotation Yrotation
                JOINT lThumb2
                {
                  OFFSET 3.37035 -0.52449 3.41376
                  CHANNELS 3 Zrotation Xrotation Yrotation
                  End Site
                  {
                    OFFSET 1.78271 -1.18214 1.43049
                  }
                }
              }
              JOINT lIndex1
              {
                OFFSET 7.75947 0.938293 5.60832
                CHANNELS 3 Zrotation Xrotation Yrotation
                JOINT lIndex2
                {
                  OFFSET 2.54057 -0.884171 1.56538
                  CHANNELS 3 Zrotation Xrotation Yrotation
                  End Site
                  {
                    OFFSET 1.62519 -0.234802 1.16502
                  }
                }
              }
              JOINT lMid1
              {
                OFFSET 8.24714 1.18213 3.41376
                CHANNELS 3 Zrotation Xrotation Yrotation
                JOINT lMid2
                {
                  OFFSET 3.10165 -0.590103 1.0647
                  CHANNELS 3 Zrotation Xrotation Yrotation
                  End Site
                  {
                    OFFSET 2.48547 -0.328903 0.83742
                  }
                }
              }
              JOINT lRing1
              {
                OFFSET 8.82822 0.546677 1.51678
                CHANNELS 3 Zrotation Xrotation Yrotation
                JOINT lRing2
                {
                  OFFSET 2.60934 -0.819778 -0.0198488
                  CHANNELS 3 Zrotation Xrotation Yrotation
                  End Site
                  {
                    OFFSET 2.33842 -0.294052 0.168128
                  }
                }
              }
              JOINT lPinky1
              {
                OFFSET 8.27202 -0.0477905 -0.4584
                CHANNELS 3 Zrotation Xrotation Yrotation
                JOINT lPinky2
                {
                  OFFSET 1.82734 -0.647385 -0.700984
                  CHANNELS 3 Zrotation Xrotation Yrotation
                  End Site
                  {
                    OFFSET 1.69225 -0.51767 -0.607171
                  }
                }
              }
            }
          }
        }
      }
    }
  }
  JOINT rButtock
  {
    OFFSET -8.77824 4.35084 1.2192
    CHANNELS 3 Zrotation Xrotation Yrotation
    JOINT rThigh
    {
      OFFSET 0 -1.70687 -2.19456
      CHANNELS 3 Zrotation Xrotation Yrotation
      JOINT rShin
      {
        OFFSET 0 -36.8199 0.73152
        CHANNELS 3 Zrotation Xrotation Yrotation
        JOINT rFoot
        {
          OFFSET 0.73152 -45.1104 -5.12064
          CHANNELS 3 Zrotation Xrotation Yrotation
          End Site
          {
            OFFSET -1.1221 -3.69964 12.103
          }
        }
      }
    }
  }
  JOINT lButtock
  {
    OFFSET 8.77824 4.35084 1.2192
    CHANNELS 3 Zrotation Xrotation Yrotation
    JOINT lThigh
    {
      OFFSET 0 -1.70687 -2.19456
      CHANNELS 3 Zrotation Xrotation Yrotation
      JOINT lShin
      {
        OFFSET 0 -36.8199 0.73152
        CHANNELS 3 Zrotation Xrotation Yrotation
        JOINT lFoot
        {
          OFFSET -0.73152 -45.1104 -5.12064
          CHANNELS 3 Zrotation Xrotation Yrotation
          End Site
          {
            OFFSET 1.1221 -3.69964 12.103
          }
        }
      }
    }
  }
}
MOTION
Frames:	4
Frame Time:	0.03333
0.003232434391975403 -3.1317859888076782 -0.0021785497665405273 -3.975633144378662 1.1398568153381348 6.065654277801514 -2.5793774127960205 13.78996467590332 3.5542807579040527 2.7603468894958496 -9.292351722717285 1.2327461242675781 -5.356602668762207 15.03279972076416 -4.042682647705078 9.057120323181152 -23.88495445251465 -6.012497901916504 0.04854502156376839 0.06375771760940552 0.03928381949663162 0.016428137198090553 -0.16929732263088226 -0.1514187455177307 0.05870435759425163 0.016338294371962547 -0.20534572005271912 47.272727966308594 37.65657424926758 17.150634765625 -27.174314498901367 -26.548038482666016 61.616302490234375 -0.1992770880460739 -9.207839012145996 -1.1512583494186401 0.029525522142648697 0.11660630255937576 0.02606775611639023 -0.08294998109340668 -0.06144257262349129 0.0020900045055896044 -0.09792699664831161 0.07146371155977249 -0.08081810921430588 7.848011493682861 5.591124534606934 0.39713093638420105 0.07788034528493881 0.09352084994316101 0.06712798029184341 2.8971188068389893 0.9677512049674988 0.16998744010925293 -0.2791901230812073 0.07472217082977295 -0.07348380237817764 10.403570175170898 0.9277936220169067 -0.0067923483438789845 0.08000203222036362 -0.13887767493724823 0.021999064832925797 2.3397176265716553 -0.6738338470458984 -0.2738739252090454 0.0120654022321105 -0.05740722268819809 -0.01685316488146782 -55.199951171875 40.050071716308594 -26.292081832885742 26.523712158203125 -25.16023063659668 -58.90898513793945 -0.027219822630286217 -11.653507232666016 1.707041621208191 -0.11411271244287491 -0.23618747293949127 0.017739228904247284 -0.04070872813463211 0.08401376008987427 0.12868858873844147 -0.14772580564022064 0.2116139531135559 -0.018771305680274963 -7.93179988861084 5.275904178619385 -0.4419422149658203 0.0557379350066185 0.03732307627797127 0.021592825651168823 -3.027003765106201 0.904701828956604 0.027044100686907768 -0.1843189001083374 -0.05093194171786308 -0.08517365157604218 -10.355704307556152 0.6405715942382812 -0.068555548787117 0.04379993677139282 0.036784105002880096 -0.02625105157494545 -2.1437435150146484 -0.7461784482002258 0.1751994788646698 0.0030793221667408943 -0.028264882043004036 -0.06921876966953278 -24.09021759033203 -39.79374694824219 -19.925416946411133 -1.6836472749710083 64.2323989868164 2.6498522758483887 -3.413300037384033 -10.822176933288574 -9.668448448181152 -0.001659585745073855 0.0788470059633255 0.05482431501150131 28.19145393371582 -37.197113037109375 21.205806732177734 1.3073586225509644 63.2794189453125 -2.5703330039978027 4.29026460647583 -10.632688522338867 14.314570426940918
0.00448077917098999 -3.144809603691101 -0.004552025347948074 -3.523012399673462 0.8760105967521667 6.27644681930542 -2.476724624633789 13.742661476135254 3.489110231399536 2.744530200958252 -9.26698112487793 1.2169567346572876 -5.323945045471191 15.094524383544922 -4.027348518371582 9.098089218139648 -23.835023880004883 -6.016594409942627 0.07243163883686066 0.05462139472365379 -0.024697940796613693 0.09725247323513031 -0.18718686699867249 -0.08782035112380981 -0.03161300718784332 -0.07523752003908157 -0.23236894607543945 46.99334716796875 37.50757598876953 17.408048629760742 -27.021814346313477 -26.465261459350586 61.84144592285156 -0.21722182631492615 -9.132827758789062 -1.1157344579696655 -0.018620241433382034 0.07611352205276489 -0.0016924936790019274 -0.08423635363578796 0.015201329253613949 0.029627805575728416 -0.07492095232009888 0.020343810319900513 -0.10092201083898544 7.846158027648926 5.652999401092529 0.3668957054615021 0.2123839259147644 0.16440191864967346 0.10983703285455704 2.7795004844665527 1.0059762001037598 0.2032599151134491 -0.3206939995288849 0.09522413462400436 -0.022831780835986137 10.305438041687012 0.8774710297584534 -0.024706309661269188 0.132906973361969 -0.2436663955450058 0.021414458751678467 2.3072633743286133 -0.735353946685791 -0.3292483389377594 0.10085220634937286 -0.0913657620549202 0.03869263082742691 -54.98044967651367 40.28867721557617 -26.62061882019043 26.42390251159668 -25.153564453125 -59.11665725708008 0.004725244827568531 -12.12060546875 1.6383789777755737 -0.09713660925626755 -0.24797053635120392 0.1481255292892456 -0.033198270946741104 -0.06985365599393845 0.09307792782783508 -0.23242278397083282 0.1857883334159851 -0.03222409263253212 -8.078417778015137 5.328373908996582 -0.4344281852245331 0.12720023095607758 0.11866751313209534 0.0385410450398922 -3.007490873336792 0.8984624743461609 0.025571489706635475 -0.27579087018966675 0.01295484509319067 -0.11173036694526672 -10.442907333374023 0.6412360668182373 -0.12944331765174866 -0.02453835867345333 0.08741205930709839 0.018762007355690002 -2.0742156505584717 -0.7127307057380676 0.18332037329673767 0.008029278367757797 0.06577955931425095 -0.09755043685436249 -24.040529251098633 -40.14012908935547 -20.043153762817383 -1.717999815940857 64.42127990722656 2.7864677906036377 -3.4095351696014404 -10.891249656677246 -9.432077407836914 -0.0011972824577242136 0.14848220348358154 0.15396682918071747 27.766481399536133 -36.916160583496094 20.89836883544922 1.4336134195327759 63.25770568847656 -2.537728786468506 4.365801811218262 -10.501565933227539 14.46456527709961
0.003447011113166809 -2.9391175135970116 0.0042695552110672 -13.587114334106445 -29.259521484375 12.613359451293945 12.281376838684082 8.611883163452148 5.255540370941162 1.0204426050186157 -7.5803422927856445 1.4936078786849976 -0.4804495573043823 12.203898429870605 6.421138763427734 4.0160136222839355 -21.01222801208496 12.936198234558105 -0.1306363195180893 0.21358457207679749 -0.11216595023870468 -0.19526372849941254 -0.2604609727859497 -0.311638742685318 -0.018060769885778427 -0.03527573123574257 -0.2556970417499542 103.20587158203125 46.828060150146484 -51.32711410522461 -27.131702423095703 -43.79975128173828 90.76931762695312 -4.594546318054199 -49.29893493652344 -9.287775993347168 0.21898022294044495 0.344838947057724 -0.1505066156387329 -0.45517706871032715 0.12612999975681305 0.050551630556583405 0.2477574646472931 -0.1661883443593979 -0.22102494537830353 7.758822917938232 5.528390884399414 0.27665019035339355 0.007180508691817522 0.16506269574165344 -0.03346903994679451 2.815225601196289 0.7035752534866333 0.12019570171833038 -0.4191810190677643 -0.07872997969388962 0.10077746957540512 10.847738265991211 1.160603404045105 -0.09245352447032928 0.2116883397102356 -0.057700373232364655 0.04729438200592995 2.5337815284729004 -0.7026636004447937 -0.20751819014549255 0.28894129395484924 0.23756547272205353 -0.02637716941535473 -53.1126823425293 9.366829872131348 -39.63725662231445 14.38693904876709 -7.41516637802124 -26.510995864868164 1.772961139678955 37.736122131347656 -6.028793811798096 -0.061971262097358704 -0.2703782916069031 -0.025522571057081223 -0.023035462945699692 0.12809887528419495 0.06990977376699448 -0.026725832372903824 0.25024014711380005 -0.3709196448326111 -7.751580238342285 5.193078517913818 -0.4907677471637726 0.04130157083272934 0.1241927221417427 -0.026760930195450783 -3.2345242500305176 0.9200947284698486 0.1244741901755333 0.023304183036088943 -0.3624442219734192 -0.1060868427157402 -10.325923919677734 0.8263600468635559 -0.0763232409954071 -0.1021619364619255 0.21978925168514252 -0.008252337574958801 -2.1549739837646484 -0.4725166857242584 0.05013063922524452 -0.3604133725166321 0.3078925907611847 -0.011455453000962734 -8.155952453613281 8.630277633666992 -2.9597041606903076 -0.2315932661294937 33.41968536376953 2.117842197418213 -11.010069847106934 -17.86910629272461 -32.0380744934082 -0.13149386644363403 -0.03927348181605339 0.4274141192436218 86.57835388183594 -54.47622299194336 75.1360855102539 4.097046852111816 77.9323501586914 -3.9670512676239014 -0.9099408984184265 0.7540441155433655 -5.30776834487915
-0.014593824744224548 -2.7301786467432976 0.011087767779827118 -15.157344818115234 -29.155542373657227 14.634027481079102 14.453302383422852 7.484919548034668 4.318819522857666 1.1101173162460327 -7.381415843963623 1.3623957633972168 -0.13950711488723755 12.356764793395996 7.209473609924316 3.453815221786499 -21.363218307495117 14.682368278503418 0.05233493447303772 0.24344326555728912 0.07205324620008469 -0.18582257628440857 -0.45346128940582275 -0.051116906106472015 0.17825250327587128 0.23010434210300446 -0.14646774530410767 104.37252807617188 42.37183380126953 -56.10698699951172 -26.118179321289062 -45.658241271972656 94.49158477783203 -4.546707630157471 -48.383602142333984 -9.243995666503906 0.3208940923213959 0.7161430716514587 -0.1200273334980011 -0.458235502243042 0.20349200069904327 -0.0012838043039664626 0.017568489536643028 -0.19163675606250763 -0.34969982504844666 7.721702575683594 5.7343058586120605 0.33823615312576294 0.4323512017726898 0.20424066483974457 0.1849994659423828 2.782989501953125 0.8421602249145508 0.3097377121448517 -0.42247074842453003 0.2748670279979706 -0.1805405616760254 10.684476852416992 1.4718421697616577 -0.01165578793734312 0.12519119679927826 -0.09148121625185013 -0.17043592035770416 2.458935260772705 -0.5801802277565002 -0.44798481464385986 0.4446500539779663 0.1583721935749054 -0.11793626844882965 -52.35993957519531 14.539874076843262 -35.983097076416016 13.162593841552734 -6.7418904304504395 -24.32571029663086 1.681418538093567 37.01322937011719 -5.903466701507568 -0.22306860983371735 -0.3880862891674042 -0.13584467768669128 0.06281397491693497 -0.3930261433124542 0.32297125458717346 -0.1607966423034668 0.09699057042598724 -0.20199187099933624 -8.02194881439209 5.002595901489258 -0.5345829129219055 0.05784940347075462 -0.001841173623688519 0.2021884024143219 -3.335095167160034 0.5434899926185608 0.08817008882761002 -0.06720240414142609 0.11040674895048141 -0.22646541893482208 -10.809222221374512 0.5546666979789734 -0.251117080450058 -0.017115851864218712 0.25320783257484436 0.29679811000823975 -2.014961004257202 -0.624152660369873 -0.1379338800907135 -0.270194411277771 0.01685362681746483 -0.055279724299907684 -9.794499397277832 12.812838554382324 -2.8134162425994873 0.010720115154981613 29.630191802978516 2.136565923690796 -9.589578628540039 -16.36518669128418 -32.450870513916016 -0.09262466430664062 -0.15331684052944183 0.31275227665901184 89.01820373535156 -51.95357894897461 76.575927734375 3.1125197410583496 77.80229949951172 -2.694319725036621 -1.3159198760986328 0.7936695218086243 -6.240975856781006
